<?xml version="1.0" standalone="no"?>
<!DOCTYPE svg PUBLIC "-//W3C//DTD SVG 20010904//EN"
 "http://www.w3.org/TR/2001/REC-SVG-20010904/DTD/svg10.dtd">
<svg version="1.0" xmlns="http://www.w3.org/2000/svg"
 width="600.000000pt" height="600.000000pt" viewBox="0 0 600.000000 600.000000"
 preserveAspectRatio="xMidYMid meet">
<metadata>
Created by potrace 1.11, written by Peter Selinger 2001-2013
</metadata>
<g transform="translate(0.000000,600.000000) scale(0.100000,-0.100000)"
fill="#000000" stroke="none">
<path d="M2915 5956 c-23 -7 -49 -17 -60 -23 -10 -6 -519 -509 -1130 -1117
-841 -837 -1117 -1118 -1135 -1154 -34 -68 -37 -162 -6 -228 28 -61 104 -130
160 -146 30 -9 296 -12 1011 -13 l970 0 1 -268 c0 -183 -3 -270 -10 -275 -6
-3 -148 -7 -316 -8 -331 -1 -372 -6 -490 -62 -169 -79 -292 -225 -345 -409
-25 -84 -26 -97 -26 -372 0 -346 0 -348 49 -471 72 -185 242 -333 442 -386
103 -27 616 -27 743 1 91 19 208 83 288 158 50 47 120 143 143 197 31 75 34
84 41 115 15 63 16 89 18 385 l2 305 625 3 624 2 -872 -867 c-950 -947 -914
-906 -914 -1023 0 -194 203 -327 376 -245 44 21 239 211 1173 1142 1077 1074
1122 1120 1138 1172 34 105 5 212 -74 284 -83 75 -4 70 -1091 72 -536 2 -977
3 -980 4 -7 1 -7 541 0 542 3 1 142 2 310 4 344 2 390 9 520 73 101 50 231
178 278 275 67 137 74 188 70 544 l-3 318 -32 83 c-77 201 -248 355 -453 408
-53 14 -117 18 -340 18 -296 2 -367 -4 -457 -35 -188 -64 -334 -211 -401 -404
-32 -91 -34 -117 -36 -440 l-1 -300 -624 -2 -624 -3 871 868 c716 712 875 876
892 915 32 71 28 178 -7 235 -71 116 -197 166 -318 128z m934 -1509 c13 -6 33
-24 44 -40 20 -25 21 -41 21 -272 -1 -230 -2 -248 -21 -273 -37 -50 -47 -51
-348 -49 l-280 2 0 282 c0 386 -21 363 325 363 167 0 242 -4 259 -13z m-1124
-2541 c0 -211 -3 -285 -13 -306 -25 -52 -43 -55 -318 -55 l-252 0 -26 24 c-15
14 -30 38 -34 53 -5 22 -8 390 -3 480 1 24 48 76 74 81 12 2 146 4 297 3 l275
-1 0 -279z"/>
</g>
</svg>
