<?xml version="1.0" encoding="utf-8"?>
<!-- Generator: Adobe Illustrator 16.0.0, SVG Export Plug-In . SVG Version: 6.00 Build 0)  -->
<!DOCTYPE svg PUBLIC "-//W3C//DTD SVG 1.1//EN" "http://www.w3.org/Graphics/SVG/1.1/DTD/svg11.dtd">
<svg version="1.1" id="Calque_1" xmlns="http://www.w3.org/2000/svg" xmlns:xlink="http://www.w3.org/1999/xlink" x="0px" y="0px"
	 width="50px" height="50px" viewBox="0 0 50 50" enable-background="new 0 0 50 50" xml:space="preserve">
<g>
	<path fill="#FFFFFF" d="M42.678,40.556c1.166-1.166,1.166-3.075,0-4.242l-9.193-9.192c-1.166-1.167-1.166-3.076,0-4.243
		l9.192-9.192c1.166-1.167,1.167-3.076,0-4.243l-2.121-2.121c-1.167-1.167-3.076-1.167-4.242,0l-9.192,9.192
		c-1.167,1.167-3.076,1.167-4.243,0l-9.192-9.192c-1.167-1.167-3.076-1.167-4.243,0L7.322,9.444c-1.167,1.167-1.167,3.076,0,4.242
		l9.192,9.192c1.167,1.167,1.167,3.076,0,4.243l-9.193,9.192c-1.167,1.166-1.167,3.076,0,4.242l2.122,2.122
		c1.167,1.166,3.076,1.166,4.242,0l9.192-9.193c1.167-1.166,3.076-1.166,4.243,0l9.192,9.193c1.167,1.166,3.076,1.166,4.242,0
		L42.678,40.556z"/>
</g>
</svg>
