<?xml version="1.0" encoding="utf-8"?>
<!-- Generator: Adobe Illustrator 16.0.0, SVG Export Plug-In . SVG Version: 6.00 Build 0)  -->
<!DOCTYPE svg PUBLIC "-//W3C//DTD SVG 1.1//EN" "http://www.w3.org/Graphics/SVG/1.1/DTD/svg11.dtd">
<svg version="1.1" id="Calque_1" xmlns="http://www.w3.org/2000/svg" xmlns:xlink="http://www.w3.org/1999/xlink" x="0px" y="0px"
	 width="50px" height="50px" viewBox="0 0 50 50" enable-background="new 0 0 50 50" xml:space="preserve">
<g>
	<path fill="#FFFFFF" d="M24.72,49.795c-0.574,0-1.145-0.22-1.583-0.655c-0.875-0.875-0.875-2.291,0-3.165l14.209-14.21H26.956
		v4.488c0,2.976-2.42,5.396-5.397,5.396h-3.563c-2.978,0-5.397-2.421-5.397-5.396v-3.567c0-2.975,2.419-5.396,5.397-5.396h4.487
		v-4.597H6.693c-0.905,0-1.722-0.544-2.069-1.38c-0.344-0.837-0.152-1.8,0.486-2.438l18.03-18.031c0.874-0.873,2.29-0.873,3.165,0
		c0.873,0.874,0.873,2.291,0,3.164L12.095,18.217h10.389v-4.488c0-2.976,2.42-5.398,5.397-5.398h3.565
		c2.977,0,5.396,2.422,5.396,5.398v3.567c0,2.976-2.42,5.396-5.396,5.396h-4.488l-0.003,4.597h15.791
		c0.906,0,1.722,0.544,2.068,1.382c0.345,0.837,0.154,1.798-0.485,2.439L26.301,49.14C25.865,49.575,25.291,49.795,24.72,49.795z
		 M17.995,31.765c-0.51,0-0.922,0.415-0.922,0.921v3.567c0,0.508,0.412,0.92,0.922,0.92h3.563c0.509,0,0.924-0.412,0.924-0.92
		v-4.488H17.995z M26.959,18.217h4.488c0.506,0,0.922-0.413,0.922-0.921v-3.567c0-0.507-0.416-0.92-0.922-0.92h-3.565
		c-0.51,0-0.923,0.413-0.923,0.92V18.217z"/>
</g>
</svg>
