<?xml version="1.0" encoding="utf-8"?>
<!-- Generator: Adobe Illustrator 16.0.0, SVG Export Plug-In . SVG Version: 6.00 Build 0)  -->
<!DOCTYPE svg PUBLIC "-//W3C//DTD SVG 1.1//EN" "http://www.w3.org/Graphics/SVG/1.1/DTD/svg11.dtd">
<svg version="1.1" id="Calque_1" xmlns="http://www.w3.org/2000/svg" xmlns:xlink="http://www.w3.org/1999/xlink" x="0px" y="0px"
	 width="20px" height="20px" viewBox="0 0 20 20" enable-background="new 0 0 20 20" xml:space="preserve">
<g id="Calque_1_1_">
	<path fill="#FFFFFF" d="M12.318,17.218c-0.26,0.158-0.651,0.368-1.178,0.636c-0.884,0-1.729-0.201-2.537-0.602
		c-0.616-1.697-0.924-4.02-0.924-6.963c0-1.09,0.078-2.365,0.233-3.826C8.1,4.743,8.33,3.508,8.604,2.759
		c0.808-0.4,1.653-0.604,2.537-0.612c0.267,0.111,0.658,0.326,1.178,0.645l-0.256,3.204l-1.668,1.079
		C10.039,7.616,9.82,8.161,9.738,8.71C9.694,8.977,9.672,9.574,9.672,10.5c0,1.039,0.178,1.768,0.534,2.191
		c0.155,0.192,0.774,0.631,1.856,1.312L12.318,17.218z"/>
</g>
<g id="Calque_2" display="none">
	<path display="inline" d="M7.864,10.006l-4.977-4.98v9.949L7.864,10.006z M3.153,4.761l6.586,6.589
		c0.071,0.07,0.158,0.105,0.264,0.105s0.195-0.035,0.266-0.105l6.586-6.589H3.153z M11.878,10.271l-1.343,1.331
		c-0.146,0.149-0.323,0.227-0.532,0.227c-0.206,0-0.386-0.076-0.537-0.227l-1.335-1.331L3.153,15.24h13.693L11.878,10.271z
		 M12.145,10.006l4.969,4.969v-9.95L12.145,10.006z"/>
</g>
<g id="Calque_3" display="none">
	<path display="inline" d="M10.859,17.736H7.635V9.94H6.023V7.254h1.611V5.642c0-2.191,0.909-3.495,3.494-3.495h2.151v2.687h-1.346
		c-1.004,0-1.072,0.375-1.072,1.077l-0.004,1.343h2.437L13.011,9.94h-2.151V17.736z"/>
</g>
</svg>
